<svg width="34" height="88" viewBox="0 0 34 88" fill="none" xmlns="http://www.w3.org/2000/svg">
<path fill-rule="evenodd" clip-rule="evenodd" d="M14.9762 0.571426C15.8704 0.571426 16.5952 1.2963 16.5952 2.19047H14.9762H13.3571C13.3571 1.2963 14.082 0.571426 14.9762 0.571426ZM3.70739 52.7899C4.0653 52.1574 4.54825 51.3023 5.11722 50.2908C6.37092 48.062 8.04327 45.072 9.71625 42.0302C11.3879 38.991 13.0658 35.8896 14.3282 33.4414C14.9581 32.2197 15.4933 31.1439 15.8741 30.313C16.0635 29.8998 16.2249 29.5251 16.3421 29.2124C16.4005 29.0567 16.456 28.8951 16.499 28.739C16.5337 28.6127 16.5952 28.37 16.5952 28.0952V2.19047C16.5952 2.19047 16.5952 2.19047 14.9762 2.19047C13.3571 2.19047 13.3571 2.19047 13.3571 2.19047V27.9437C13.3463 27.9765 13.331 28.02 13.3102 28.0754C13.2318 28.2844 13.1063 28.5801 12.9304 28.9638C12.5808 29.7267 12.0724 30.7506 11.4501 31.9574C10.208 34.3664 8.54666 37.4376 6.87898 40.4697C5.21268 43.4994 3.54575 46.4797 2.29498 48.7033C1.66971 49.8149 1.14869 50.7369 0.784084 51.3809C0.601785 51.7029 0.4586 51.9553 0.361048 52.1272L0.212393 52.3888C0.212393 52.3888 0.21183 52.3898 1.61905 53.1905L0.212393 52.3888C0.0735615 52.6328 0 52.9097 0 53.1905H1.61905C0 53.1905 1.09048e-05 53.1964 1.09048e-05 53.1964L4.41018e-05 53.2025L0.000179302 53.2147L0.00073979 53.2398C0.00124788 53.2569 0.00203254 53.2746 0.00313866 53.2929C0.00535127 53.3294 0.00884853 53.3684 0.0139848 53.4095C0.0242728 53.4918 0.0410713 53.5822 0.0669901 53.6789C0.119364 53.8745 0.2064 54.0862 0.340964 54.3015C0.613673 54.7379 1.03687 55.1197 1.61607 55.4286C2.72622 56.0207 4.56372 56.4286 7.69048 56.4286H13.3571V86.381C13.3571 87.2751 14.082 88 14.9762 88C15.8704 88 16.5952 87.2751 16.5952 86.381V54.8095C16.5952 53.9153 15.8704 53.1905 14.9762 53.1905H7.69048C5.58939 53.1905 4.37745 52.986 3.70739 52.7899Z" fill="black"/>
<path d="M26.8462 11.9114C26.3748 11.9795 25.8854 12.2068 25.483 12.5409C25.3254 12.6723 24.9411 13.0466 24.7752 13.2307C24.4385 13.6049 24.3038 13.806 24.2874 13.956C24.2693 14.1385 24.3974 14.3257 24.5781 14.3829C24.6947 14.4185 24.8491 14.4076 24.9345 14.3581C25.0199 14.3102 25.2022 14.1354 25.4453 13.871C25.6719 13.6251 25.9166 13.3869 26.1153 13.2214C26.452 12.9414 26.723 12.8193 27.0383 12.8053C27.444 12.7899 27.8529 13.0141 28.5706 13.6483C29.579 14.5406 30.0701 14.8809 30.5743 15.0433C30.7024 15.0851 30.7615 15.1005 30.8453 15.1129C30.8732 15.1175 30.9274 15.1268 30.9684 15.133C31.0818 15.1531 31.4053 15.1407 31.5498 15.1113C32.0245 15.0139 32.5664 14.6984 33.1101 14.205C33.5978 13.7612 33.836 13.492 33.9509 13.2539C34.0084 13.1363 34.0166 12.9631 33.969 12.8719C33.9115 12.7636 33.7736 12.6538 33.6635 12.6306C33.5962 12.6167 33.427 12.6244 33.3827 12.6445C33.3597 12.6538 33.3252 12.6708 33.3039 12.6785C33.2579 12.6986 33.1248 12.827 33.0033 12.9677C32.954 13.0234 32.9113 13.0714 32.9064 13.076C32.9015 13.0806 32.8539 13.1363 32.7997 13.1997C32.6387 13.39 32.6289 13.4008 32.4055 13.6096C32.0918 13.9034 31.8208 14.0782 31.5416 14.1664C31.3725 14.2205 31.3593 14.222 31.182 14.2298C30.7861 14.2437 30.5907 14.1385 29.8188 13.4936C29.7531 13.4379 29.6858 13.3822 29.671 13.3699C29.6365 13.342 29.3705 13.1147 29.3097 13.0605C28.4606 12.3197 27.9548 12.0212 27.3865 11.9269C27.2715 11.9068 26.9398 11.8975 26.8462 11.9114Z" fill="black"/>
</svg>
